#N canvas 94 207 1280 708 12;
#X msg 31 53 \; pd dsp \$1;
#X obj 31 22 tgl 15 0 empty empty empty 17 7 0 10 -262144 -1 -1 1 1
;
#X obj 133 115 adc~;
#X floatatom 132 212 5 0 0 0 - - -;
#X obj 290 211 bng 15 250 50 0 empty empty empty 17 7 0 10 -262144
-1 -1;
#X obj 290 271 f;
#X obj 327 272 + 1;
#X msg 222 156 minvel 15;
#X obj 132 182 bonk~ -minbandwidth 1.5;
#X obj 290 299 mod 360;
#X floatatom 290 324 5 0 0 0 - - -;
#X floatatom 132 268 5 0 0 0 - - -;
#X obj 132 317 bng 15 250 50 0 empty empty empty 17 7 0 10 -262144
-1 -1;
#X obj 1150 107 gemwin;
#X msg 1144 43 create \, 1;
#X msg 1167 69 0 \, destroy;
#X obj 490 108 gemhead;
#X msg 209 114 thresh 2.5 10;
#X obj 132 243 max 60;
#X obj 132 292 change 60;
#X obj 132 362 line;
#X obj 486 536 cylinder;
#X floatatom 132 387 5 0 0 0 - - -;
#X msg 512 512 1;
#X obj 490 173 rotateXYZ;
#X obj 486 333 scaleXYZ;
#X msg 132 337 7 \, 2 200;
#X obj 368 338 * 0.5;
#X obj 368 363 mod 360;
#X obj 371 272 f;
#X obj 405 272 + 1;
#X obj 634 265 separator;
#X obj 541 217 t a a;
#X obj 486 265 separator;
#X msg 667 412 2;
#X obj 634 446 disk 3;
#X msg 718 412 50;
#X obj 60 291 max 40;
#X obj 60 316 change 40;
#X obj 60 372 line;
#X floatatom 60 397 5 0 0 0 - - -;
#X msg 60 341 3 \, 2 200;
#X obj 290 354 s rotX;
#X obj 368 397 s rotY;
#X obj 510 143 r rotX;
#X obj 570 143 r rotY;
#X obj 132 411 s scaleCyl;
#X obj 60 441 s scaleDisk;
#X obj 539 307 r scaleCyl;
#X obj 647 377 r scaleDisk;
#X obj 737 377 loadbang;
#X obj 867 105 gemhead;
#X obj 867 495 curve 2;
#X msg 760 467 draw line;
#X msg 900 437 0 10 0;
#X msg 961 437 0 -10 0;
#X obj 867 339 translateXYZ;
#X floatatom 925 307 5 0 0 0 - - -;
#X msg 1029 437 width \$1;
#X obj 1029 409 + 1;
#X obj 1029 378 random 20;
#X obj 867 520 t a b;
#X obj 802 617 spigot;
#X obj 900 549 f;
#X obj 935 549 + 1;
#X obj 900 582 mod 10;
#X obj 760 440 loadbang;
#X obj 922 402 loadbang;
#X obj 867 369 colorRGB 1 1 0 1;
#X obj 867 402 alpha;
#X obj 925 257 - 40;
#X obj 925 282 * 0.1;
#X obj 925 208 random 80;
#X obj 925 233 + 1;
#X msg 1029 350 seed 2432;
#X msg 993 182 seed 5678;
#X obj 341 224 s lines;
#X obj 925 182 r lines;
#X obj 1072 156 loadbang;
#X obj 285 511 pix_snap2tex;
#X msg 557 511 42;
#X connect 1 0 0 0;
#X connect 2 0 8 0;
#X connect 2 1 8 0;
#X connect 3 0 18 0;
#X connect 3 0 37 0;
#X connect 4 0 5 0;
#X connect 4 0 29 0;
#X connect 4 0 76 0;
#X connect 5 0 6 0;
#X connect 5 0 9 0;
#X connect 6 0 5 1;
#X connect 7 0 8 0;
#X connect 8 0 3 0;
#X connect 8 1 4 0;
#X connect 9 0 10 0;
#X connect 10 0 42 0;
#X connect 11 0 19 0;
#X connect 12 0 26 0;
#X connect 14 0 13 0;
#X connect 15 0 13 0;
#X connect 16 0 24 0;
#X connect 17 0 8 0;
#X connect 18 0 11 0;
#X connect 19 0 12 0;
#X connect 20 0 22 0;
#X connect 22 0 46 0;
#X connect 23 0 21 1;
#X connect 24 0 32 0;
#X connect 25 0 21 0;
#X connect 26 0 20 0;
#X connect 27 0 28 0;
#X connect 28 0 43 0;
#X connect 29 0 30 0;
#X connect 29 0 27 0;
#X connect 30 0 29 1;
#X connect 31 0 35 0;
#X connect 32 0 33 0;
#X connect 32 1 31 0;
#X connect 33 0 25 0;
#X connect 34 0 35 1;
#X connect 36 0 35 2;
#X connect 37 0 38 0;
#X connect 38 0 41 0;
#X connect 39 0 40 0;
#X connect 40 0 47 0;
#X connect 41 0 39 0;
#X connect 44 0 24 1;
#X connect 45 0 24 2;
#X connect 48 0 25 3;
#X connect 49 0 35 1;
#X connect 50 0 34 0;
#X connect 50 0 36 0;
#X connect 51 0 56 0;
#X connect 52 0 61 0;
#X connect 53 0 52 0;
#X connect 54 0 52 1;
#X connect 55 0 52 2;
#X connect 56 0 68 0;
#X connect 57 0 56 1;
#X connect 58 0 52 0;
#X connect 59 0 58 0;
#X connect 60 0 59 0;
#X connect 61 0 62 0;
#X connect 61 1 63 0;
#X connect 62 0 56 0;
#X connect 63 0 64 0;
#X connect 63 0 65 0;
#X connect 64 0 63 1;
#X connect 65 0 62 1;
#X connect 66 0 53 0;
#X connect 67 0 54 0;
#X connect 67 0 55 0;
#X connect 68 0 69 0;
#X connect 69 0 52 0;
#X connect 70 0 71 0;
#X connect 71 0 57 0;
#X connect 72 0 73 0;
#X connect 73 0 70 0;
#X connect 74 0 60 0;
#X connect 75 0 72 0;
#X connect 77 0 60 0;
#X connect 77 0 72 0;
#X connect 78 0 75 0;
#X connect 78 0 74 0;
#X connect 80 0 21 2;
