#N canvas 94 207 1280 708 12;
#X msg 31 53 \; pd dsp \$1;
#X obj 31 22 tgl 15 0 empty empty empty 17 7 0 10 -262144 -1 -1 0 1
;
#X obj 233 115 adc~;
#X floatatom 232 212 5 0 0 0 - - -;
#X obj 390 211 bng 15 250 50 0 empty empty empty 17 7 0 10 -262144
-1 -1;
#X obj 390 264 f;
#X obj 427 265 + 1;
#X msg 322 156 minvel 15;
#X obj 232 182 bonk~ -minbandwidth 1.5;
#X obj 390 292 mod 360;
#X floatatom 390 317 5 0 0 0 - - -;
#X floatatom 232 268 5 0 0 0 - - -;
#X obj 232 317 bng 15 250 50 0 empty empty empty 17 7 0 10 -262144
-1 -1;
#X obj 1150 107 gemwin;
#X msg 1144 43 create \, 1;
#X msg 1167 69 0 \, destroy;
#X obj 560 108 gemhead;
#X msg 309 114 thresh 2.5 10;
#X obj 232 243 max 60;
#X obj 232 292 change 60;
#X obj 232 362 line;
#X obj 556 536 cylinder;
#X floatatom 232 387 5 0 0 0 - - -;
#X msg 582 512 1;
#X obj 560 173 rotateXYZ;
#X obj 556 333 scaleXYZ;
#X msg 232 337 7 \, 2 200;
#X obj 468 331 * 0.5;
#X obj 468 356 mod 360;
#X obj 471 265 f;
#X obj 505 265 + 1;
#X obj 704 265 separator;
#X obj 611 217 t a a;
#X obj 556 265 separator;
#X msg 737 412 2;
#X obj 704 446 disk 3;
#X msg 788 412 50;
#X obj 160 291 max 40;
#X obj 160 316 change 40;
#X obj 160 372 line;
#X floatatom 160 397 5 0 0 0 - - -;
#X msg 160 341 3 \, 2 200;
#X obj 390 347 s rotX;
#X obj 468 390 s rotY;
#X obj 580 143 r rotX;
#X obj 640 143 r rotY;
#X obj 232 411 s scaleCyl;
#X obj 160 441 s scaleDisk;
#X obj 609 307 r scaleCyl;
#X obj 717 377 r scaleDisk;
#X obj 807 377 loadbang;
#X obj 441 224 s lines;
#X obj 385 511 pix_snap2tex;
#X msg 627 511 42;
#X obj 948 72 gemhead;
#X obj 948 137 part_head;
#X obj 948 162 part_source 5 point 0 0 0;
#X obj 948 187 part_velocity sphere 0 0.2 0 0.2;
#X obj 948 212 part_killold 20;
#X obj 948 337 part_orbitpoint;
#X obj 948 412 part_color;
#X obj 948 487 part_size;
#X obj 948 512 part_render;
#X obj 948 567 curve 2;
#X msg 1034 103 speed \$1;
#X floatatom 1034 79 5 0 0 0 - - -;
#X obj 1047 255 r x;
#X obj 1081 255 r y;
#X obj 1047 280 pack f f 0;
#X floatatom 1069 306 5 0 0 0 - - -;
#X msg 981 382 0 1 1;
#X msg 1035 382 1 1 0;
#X floatatom 1008 456 5 0 0 0 - - -;
#X floatatom 828 449 5 0 0 0 - - -;
#X msg 828 473 width \$1;
#X msg 828 526 draw linestrip;
#X obj 1072 462 loadbang;
#X msg 1072 487 0 100 0;
#X msg 1120 517 0 -100 0;
#X obj 104 181 fiddle~;
#X obj 233 140 *~ 0.5;
#X floatatom 114 211 5 0 0 0 - - -;
#X floatatom 157 211 5 0 0 0 - - -;
#X obj 114 235 s x;
#X obj 157 235 s y;
#X connect 1 0 0 0;
#X connect 2 0 80 0;
#X connect 2 1 80 0;
#X connect 3 0 18 0;
#X connect 3 0 37 0;
#X connect 4 0 5 0;
#X connect 4 0 29 0;
#X connect 4 0 51 0;
#X connect 5 0 6 0;
#X connect 5 0 9 0;
#X connect 6 0 5 1;
#X connect 7 0 8 0;
#X connect 8 0 3 0;
#X connect 8 1 4 0;
#X connect 9 0 10 0;
#X connect 10 0 42 0;
#X connect 11 0 19 0;
#X connect 12 0 26 0;
#X connect 14 0 13 0;
#X connect 15 0 13 0;
#X connect 16 0 24 0;
#X connect 17 0 8 0;
#X connect 18 0 11 0;
#X connect 19 0 12 0;
#X connect 20 0 22 0;
#X connect 22 0 46 0;
#X connect 23 0 21 1;
#X connect 24 0 32 0;
#X connect 25 0 21 0;
#X connect 26 0 20 0;
#X connect 27 0 28 0;
#X connect 28 0 43 0;
#X connect 29 0 30 0;
#X connect 29 0 27 0;
#X connect 30 0 29 1;
#X connect 31 0 35 0;
#X connect 32 0 33 0;
#X connect 32 1 31 0;
#X connect 33 0 25 0;
#X connect 34 0 35 1;
#X connect 36 0 35 2;
#X connect 37 0 38 0;
#X connect 38 0 41 0;
#X connect 39 0 40 0;
#X connect 40 0 47 0;
#X connect 41 0 39 0;
#X connect 44 0 24 1;
#X connect 45 0 24 2;
#X connect 48 0 25 3;
#X connect 49 0 35 1;
#X connect 50 0 34 0;
#X connect 50 0 36 0;
#X connect 53 0 21 2;
#X connect 54 0 55 0;
#X connect 55 0 56 0;
#X connect 56 0 57 0;
#X connect 57 0 58 0;
#X connect 58 0 59 0;
#X connect 59 0 60 0;
#X connect 60 0 61 0;
#X connect 61 0 62 0;
#X connect 62 0 63 0;
#X connect 64 0 55 0;
#X connect 65 0 64 0;
#X connect 66 0 68 0;
#X connect 67 0 68 1;
#X connect 68 0 59 1;
#X connect 69 0 59 2;
#X connect 70 0 60 1;
#X connect 71 0 60 2;
#X connect 72 0 61 1;
#X connect 73 0 74 0;
#X connect 74 0 63 0;
#X connect 75 0 63 0;
#X connect 76 0 77 0;
#X connect 76 0 78 0;
#X connect 77 0 63 1;
#X connect 78 0 63 2;
#X connect 79 2 81 0;
#X connect 79 3 82 0;
#X connect 80 0 8 0;
#X connect 80 0 79 0;
#X connect 81 0 83 0;
#X connect 82 0 84 0;
