#N canvas 392 216 837 697 12;
#X obj 43 29 tgl 15 0 empty empty empty 17 7 0 10 -262144 -1 -1 1 1
;
#X msg 43 49 \; pd dsp \;;
#X msg 675 59 create \, 1;
#X msg 705 89 0 \, destroy;
#X obj 698 165 gemwin;
#X obj 329 90 gemhead;
#X obj 329 460 pix_texture;
#X obj 494 121 block~ 4069;
#X obj 329 385 pix_sig2pix 8 8;
#N canvas 0 50 450 300 audioin 0;
#X obj 98 39 adc~;
#X obj 99 85 *~ 0.5;
#X obj 99 110 outlet~;
#X obj 211 73 block~ 64;
#X connect 0 0 1 0;
#X connect 0 1 1 0;
#X connect 1 0 2 0;
#X restore 132 198 pd audioin;
#X obj 329 505 cube;
#X msg 368 427 quality 0;
#X obj 133 271 bp~ 500 5;
#X obj 113 241 bp~ 60 5;
#X obj 173 301 bp~ 1500 5;
#X obj 402 161 tgl 15 0 empty empty empty 17 7 0 10 -262144 -1 -1 1
1;
#X obj 402 186 metro 50;
#X obj 402 211 f;
#X obj 442 211 + 1;
#X obj 402 236 mod 360;
#X obj 329 321 rotateXYZ;
#X obj 480 271 * 0.5;
#X obj 480 296 i;
#X connect 0 0 1 0;
#X connect 2 0 4 0;
#X connect 3 0 4 0;
#X connect 5 0 20 0;
#X connect 6 0 10 0;
#X connect 8 0 6 0;
#X connect 9 0 13 0;
#X connect 9 0 12 0;
#X connect 9 0 14 0;
#X connect 11 0 6 0;
#X connect 12 0 8 1;
#X connect 13 0 8 0;
#X connect 14 0 8 2;
#X connect 15 0 16 0;
#X connect 16 0 17 0;
#X connect 17 0 18 0;
#X connect 17 0 19 0;
#X connect 18 0 17 1;
#X connect 19 0 20 1;
#X connect 19 0 21 0;
#X connect 20 0 8 0;
#X connect 21 0 22 0;
#X connect 22 0 20 2;
