#N canvas 508 397 763 651 12;
#X obj 421 46 gemhead;
#X obj 421 436 curve 2;
#X obj 87 195 gemwin;
#X msg 62 119 create \, 1;
#X msg 108 153 0 \, destroy;
#X msg 314 408 draw line;
#X msg 484 370 0 10 0;
#X msg 545 370 0 -10 0;
#X obj 421 280 translateXYZ;
#X floatatom 479 238 5 0 0 0 - - -;
#X obj 241 44 tgl 15 0 empty empty empty 17 7 0 10 -262144 -1 -1 0
1;
#X msg 241 64 \; pd dsp \$1;
#X obj 534 84 tgl 15 0 empty empty empty 17 7 0 10 -262144 -1 -1 0
1;
#X msg 643 360 width \$1;
#X obj 643 332 + 1;
#X obj 643 301 random 20;
#X obj 421 461 t a b;
#X obj 356 558 spigot;
#X obj 454 490 f;
#X obj 489 490 + 1;
#X obj 454 523 mod 10;
#X obj 314 381 loadbang;
#X obj 506 335 loadbang;
#X obj 421 310 colorRGB 1 1 0 1;
#X obj 421 343 alpha;
#X obj 534 179 - 40;
#X obj 534 204 * 0.1;
#X obj 534 104 metro 50;
#X obj 534 130 random 80;
#X obj 534 155 + 1;
#X msg 654 246 seed 2432;
#X msg 607 104 seed 5678;
#X connect 0 0 8 0;
#X connect 1 0 16 0;
#X connect 3 0 2 0;
#X connect 4 0 2 0;
#X connect 5 0 1 0;
#X connect 6 0 1 1;
#X connect 7 0 1 2;
#X connect 8 0 23 0;
#X connect 9 0 8 1;
#X connect 10 0 11 0;
#X connect 12 0 27 0;
#X connect 13 0 1 0;
#X connect 14 0 13 0;
#X connect 15 0 14 0;
#X connect 16 0 17 0;
#X connect 16 1 18 0;
#X connect 17 0 8 0;
#X connect 18 0 19 0;
#X connect 18 0 20 0;
#X connect 19 0 18 1;
#X connect 20 0 17 1;
#X connect 21 0 5 0;
#X connect 22 0 6 0;
#X connect 22 0 7 0;
#X connect 23 0 24 0;
#X connect 24 0 1 0;
#X connect 25 0 26 0;
#X connect 26 0 9 0;
#X connect 27 0 15 0;
#X connect 27 0 28 0;
#X connect 28 0 29 0;
#X connect 29 0 25 0;
#X connect 30 0 15 0;
#X connect 31 0 28 0;
