#N canvas 167 151 1076 684 12;
#X msg 906 36 create \, 1;
#X obj 906 101 gemwin;
#X msg 946 66 0 \, destroy;
#X obj 668 72 gemhead;
#X obj 668 137 part_head;
#X obj 668 162 part_source 5 point 0 0 0;
#X obj 668 187 part_velocity sphere 0 0.2 0 0.2;
#X obj 668 212 part_killold 20;
#X obj 668 337 part_orbitpoint;
#X obj 668 412 part_color;
#X obj 668 487 part_size;
#X obj 668 512 part_render;
#X obj 668 567 curve 2;
#X msg 754 103 speed \$1;
#X floatatom 754 79 5 0 0 0 - - -;
#X obj 767 255 r x;
#X obj 801 255 r y;
#X obj 767 280 pack f f 0;
#X floatatom 789 306 5 0 0 0 - - -;
#X msg 701 382 0 1 1;
#X msg 755 382 1 1 0;
#X floatatom 728 456 5 0 0 0 - - -;
#X floatatom 548 449 5 0 0 0 - - -;
#X msg 548 473 width \$1;
#X msg 548 526 draw linestrip;
#X obj 792 462 loadbang;
#X msg 792 487 0 100 0;
#X msg 840 517 0 -100 0;
#X obj 328 72 gemhead;
#X obj 328 177 pix_film;
#X obj 328 202 pix_rgba;
#X obj 328 257 pix_flip;
#X obj 328 282 t a a;
#X obj 178 327 pix_separator;
#X obj 178 352 pix_texture;
#X obj 178 377 rectangle 5.33 4;
#X obj 360 327 pix_separator;
#X obj 360 352 pix_movement;
#X obj 360 377 alpha;
#X obj 360 402 pix_blob 4;
#X obj 458 402 t f f;
#X obj 382 472 * 10.66;
#X obj 382 497 - 5.33;
#X obj 382 522 s x;
#X obj 490 473 * 8;
#X obj 490 498 - 4;
#X obj 490 523 s y;
#X obj 482 194 vsl 15 128 0 127 0 0 empty empty empty 0 -9 0 10 -262144
-1 -1 0 1;
#X obj 522 194 vsl 15 128 0 127 0 0 empty empty empty 0 -9 0 10 -262144
-1 -1 0 1;
#X obj 393 49 bng 15 250 50 0 empty empty empty 17 7 0 10 -262144 -1
-1;
#X obj 393 74 openpanel;
#X msg 393 99 open \$1;
#X obj 455 103 tgl 15 0 empty empty empty 17 7 0 10 -262144 -1 -1 0
1;
#X msg 455 128 auto \$1;
#X connect 0 0 1 0;
#X connect 2 0 1 0;
#X connect 3 0 4 0;
#X connect 4 0 5 0;
#X connect 5 0 6 0;
#X connect 6 0 7 0;
#X connect 7 0 8 0;
#X connect 8 0 9 0;
#X connect 9 0 10 0;
#X connect 10 0 11 0;
#X connect 11 0 12 0;
#X connect 13 0 4 0;
#X connect 14 0 13 0;
#X connect 15 0 17 0;
#X connect 16 0 17 1;
#X connect 17 0 8 1;
#X connect 18 0 8 2;
#X connect 19 0 9 1;
#X connect 20 0 9 2;
#X connect 21 0 10 1;
#X connect 22 0 23 0;
#X connect 23 0 12 0;
#X connect 24 0 12 0;
#X connect 25 0 26 0;
#X connect 25 0 27 0;
#X connect 26 0 12 1;
#X connect 27 0 12 2;
#X connect 28 0 29 0;
#X connect 29 0 30 0;
#X connect 30 0 31 0;
#X connect 31 0 32 0;
#X connect 32 0 33 0;
#X connect 32 1 36 0;
#X connect 33 0 34 0;
#X connect 34 0 35 0;
#X connect 36 0 37 0;
#X connect 37 0 38 0;
#X connect 38 0 39 0;
#X connect 39 1 41 0;
#X connect 40 0 41 0;
#X connect 40 1 44 0;
#X connect 41 0 42 0;
#X connect 42 0 43 0;
#X connect 44 0 45 0;
#X connect 45 0 46 0;
#X connect 47 0 37 1;
#X connect 48 0 40 0;
#X connect 49 0 50 0;
#X connect 50 0 51 0;
#X connect 51 0 29 0;
#X connect 52 0 53 0;
#X connect 53 0 29 0;
