#N canvas 140 124 1099 760 12;
#X msg 908 45 create \, 1;
#X obj 908 120 gemwin;
#X msg 938 75 0 \, destroy;
#X obj 610 104 gemhead;
#X obj 610 149 part_head;
#X obj 610 204 part_color;
#X obj 610 259 part_source 5 point;
#X obj 610 284 part_velocity sphere 0 0 0.5 0.3;
#X obj 610 349 part_size;
#X obj 610 374 part_killold 100;
#X floatatom 534 80 5 0 0 0 - - -;
#X msg 534 104 speed \$1;
#X msg 697 150 1 1 0;
#X msg 747 150 0 0 1;
#X msg 740 230 0 0 -30;
#X floatatom 670 320 5 0 0 0 - - -;
#X obj 610 399 s pt;
#X obj 339 111 r pt;
#X obj 339 136 part_info;
#X obj 339 211 separator;
#X obj 339 286 color;
#X obj 339 361 scale 1 0 0 0;
#X obj 339 436 translate 1 0 0 0;
#X obj 339 511 rotateXYZ;
#X obj 339 536 alpha;
#X obj 339 591 text3d;
#X msg 262 537 text \$1;
#X msg 424 211 \$1 \$2 \$3 0.9;
#X obj 479 436 * 0.8;
#X text 493 415 age;
#X msg 539 52 0.1;
#X connect 0 0 1 0;
#X connect 2 0 1 0;
#X connect 3 0 4 0;
#X connect 4 0 5 0;
#X connect 5 0 6 0;
#X connect 6 0 7 0;
#X connect 7 0 8 0;
#X connect 8 0 9 0;
#X connect 9 0 16 0;
#X connect 10 0 11 0;
#X connect 11 0 4 0;
#X connect 12 0 5 1;
#X connect 13 0 5 2;
#X connect 14 0 6 3;
#X connect 15 0 8 1;
#X connect 17 0 18 0;
#X connect 18 0 19 0;
#X connect 18 1 26 0;
#X connect 18 2 22 2;
#X connect 18 3 27 0;
#X connect 18 5 21 2;
#X connect 18 6 28 0;
#X connect 19 0 20 0;
#X connect 20 0 21 0;
#X connect 21 0 22 0;
#X connect 22 0 23 0;
#X connect 23 0 24 0;
#X connect 24 0 25 0;
#X connect 26 0 25 0;
#X connect 27 0 20 1;
#X connect 28 0 23 1;
#X connect 30 0 10 0;
