#N canvas 376 162 939 628 12;
#X msg 716 52 create \, 1;
#X obj 716 127 gemwin;
#X msg 756 82 0 \, destroy;
#X obj 447 89 gemhead;
#X obj 447 114 part_head;
#X obj 447 214 part_velocity sphere 0 0.1 0.2 0.3;
#X obj 447 279 part_size;
#X obj 447 304 part_killold 20;
#X obj 447 329 s pt;
#X obj 447 169 part_source 1 point;
#X obj 176 196 r pt;
#X obj 176 221 part_info;
#X obj 176 306 separator;
#X obj 176 361 scale 1 0 0 0;
#X obj 176 426 rotateXYZ;
#X obj 176 511 translate 1 0 0 0;
#X obj 176 536 rectangle;
#X msg 577 137 0 0 0;
#X msg 373 90 speed \$1;
#X floatatom 373 60 5 0 0 0 - - -;
#X floatatom 507 255 5 0 0 0 - - -;
#X obj 268 306 unpack f f f;
#X floatatom 292 361 5 0 0 0 - - -;
#X floatatom 342 361 5 0 0 0 - - -;
#X floatatom 392 361 5 0 0 0 - - -;
#X obj 292 385 * 360;
#X obj 342 385 * 360;
#X obj 392 385 * 360;
#X msg 96 468 draw line;
#X connect 0 0 1 0;
#X connect 2 0 1 0;
#X connect 3 0 4 0;
#X connect 4 0 9 0;
#X connect 5 0 6 0;
#X connect 6 0 7 0;
#X connect 7 0 8 0;
#X connect 9 0 5 0;
#X connect 10 0 11 0;
#X connect 11 0 12 0;
#X connect 11 2 15 2;
#X connect 11 4 21 0;
#X connect 11 5 13 2;
#X connect 12 0 13 0;
#X connect 13 0 14 0;
#X connect 14 0 15 0;
#X connect 15 0 16 0;
#X connect 17 0 9 3;
#X connect 18 0 4 0;
#X connect 19 0 18 0;
#X connect 20 0 6 1;
#X connect 21 0 22 0;
#X connect 21 1 23 0;
#X connect 21 2 24 0;
#X connect 22 0 25 0;
#X connect 23 0 26 0;
#X connect 24 0 27 0;
#X connect 25 0 14 1;
#X connect 26 0 14 2;
#X connect 27 0 14 3;
#X connect 28 0 16 0;
