#N canvas 389 83 976 733 12;
#X msg 747 60 create \, 1;
#X obj 747 135 gemwin;
#X msg 797 90 0 \, destroy;
#X obj 357 114 gemhead;
#X obj 357 239 rotateXYZ;
#X obj 357 374 pix_image;
#X obj 357 509 pix_texture;
#X obj 357 534 square;
#X msg 403 329 open smiley.png;
#X obj 507 135 tgl 15 0 empty empty empty 17 7 0 10 -262144 -1 -1 0
1;
#X obj 507 185 f;
#X obj 542 186 + 1;
#X obj 507 210 mod 360;
#X msg 394 188 0;
#X obj 507 160 metro 3;
#X obj 357 463 pix_invert;
#X obj 419 421 tgl 15 0 empty empty empty 17 7 0 10 -262144 -1 -1 0
1;
#X obj 639 265 == 0;
#X obj 679 265 == 1;
#X obj 579 210 mod 2;
#X obj 357 420 alpha;
#X connect 0 0 1 0;
#X connect 2 0 1 0;
#X connect 3 0 4 0;
#X connect 4 0 5 0;
#X connect 5 0 20 0;
#X connect 6 0 7 0;
#X connect 8 0 5 0;
#X connect 9 0 14 0;
#X connect 10 0 11 0;
#X connect 10 0 12 0;
#X connect 10 0 19 0;
#X connect 11 0 10 1;
#X connect 12 0 4 2;
#X connect 13 0 4 1;
#X connect 14 0 10 0;
#X connect 15 0 6 0;
#X connect 16 0 15 0;
#X connect 17 0 16 0;
#X connect 18 0 16 0;
#X connect 19 0 17 0;
#X connect 19 0 18 0;
#X connect 20 0 15 0;
