#N canvas 189 235 1043 730 12;
#X msg 765 62 create \, 1;
#X msg 801 97 0 \, destroy;
#X obj 765 132 gemwin;
#X obj 452 83 gemhead;
#X obj 452 198 pix_image;
#X obj 452 563 pix_texture;
#X obj 452 658 rectangle 4 3;
#X obj 525 113 bng 15 250 50 0 empty empty empty 17 7 0 10 -262144
-1 -1;
#X obj 525 138 openpanel;
#X msg 525 163 open \$1;
#X obj 99 219 pix_kaleidoscope;
#X obj 127 130 tgl 15 0 empty empty empty 17 7 0 10 -262144 -1 -1 0
1;
#X obj 127 155 sel 1;
#X msg 114 183 2;
#X msg 155 184 4;
#X obj 452 463 translateXYZ;
#X obj 452 538 rotateXYZ;
#X floatatom 533 438 5 0 0 0 - - -;
#X msg 553 412 0;
#X obj 452 412 pix_invert;
#X obj 479 385 tgl 15 0 empty empty empty 17 7 0 10 -262144 -1 -1 0
1;
#X obj 452 638 pix_coordinate;
#X msg 547 611 \$1 \$1 0 \$1 0 0 \$1 0;
#X floatatom 547 594 3 1 16 0 - - -;
#X connect 0 0 2 0;
#X connect 1 0 2 0;
#X connect 3 0 4 0;
#X connect 4 0 19 0;
#X connect 5 0 21 0;
#X connect 7 0 8 0;
#X connect 8 0 9 0;
#X connect 9 0 4 0;
#X connect 11 0 12 0;
#X connect 12 0 13 0;
#X connect 12 1 14 0;
#X connect 13 0 10 1;
#X connect 14 0 10 1;
#X connect 15 0 16 0;
#X connect 16 0 5 0;
#X connect 17 0 15 3;
#X connect 18 0 17 0;
#X connect 19 0 15 0;
#X connect 20 0 19 0;
#X connect 21 0 6 0;
#X connect 22 0 21 1;
#X connect 23 0 22 0;
