#N canvas 423 242 816 751 12;
#X msg 40 65 create \, 1;
#X obj 56 155 gemwin;
#X msg 100 129 0 \, destroy;
#X obj 417 108 gemhead;
#X obj 417 491 pqtorusknots;
#X msg 364 332 draw line;
#X msg 452 257 scale \$1;
#X floatatom 452 230 5 0 0 0 - - -;
#X msg 474 299 steps 14;
#X msg 489 332 facets 18;
#X msg 492 360 thick 1;
#X msg 493 393 clump 1 0.5 1;
#X msg 492 452 pq \$1 3;
#X floatatom 503 418 5 0 0 0 - - -;
#X msg 360 378 draw points;
#X msg 340 449 width 2;
#X obj 165 204 adc~;
#X obj 166 288 *~ 0.5;
#X obj 417 179 rotateXYZ;
#X obj 95 362 bng 15 250 50 0 empty empty empty 17 7 0 10 -262144 -1
-1;
#X obj 115 417 line;
#X obj 166 313 fiddle~;
#X obj 196 429 + 12;
#X obj 246 429 + 18;
#X msg 115 392 10 \, 3 300;
#X obj 534 103 f;
#X obj 574 103 + 1;
#X obj 564 153 * 0.5;
#X obj 534 48 tgl 15 0 empty empty empty 17 7 0 10 -262144 -1 -1 0
1;
#X obj 534 73 metro 50;
#X obj 196 374 * 0.5;
#X obj 246 374 * 0.5;
#X obj 196 402 i;
#X obj 246 402 i;
#X msg 137 93 dimen 1024 512;
#X obj 534 128 mod 359;
#X connect 0 0 1 0;
#X connect 2 0 1 0;
#X connect 3 0 18 0;
#X connect 5 0 4 0;
#X connect 6 0 4 0;
#X connect 7 0 6 0;
#X connect 8 0 4 0;
#X connect 9 0 4 0;
#X connect 10 0 4 0;
#X connect 11 0 4 0;
#X connect 12 0 4 0;
#X connect 13 0 12 0;
#X connect 14 0 4 0;
#X connect 15 0 4 0;
#X connect 16 0 17 0;
#X connect 16 1 17 0;
#X connect 17 0 21 0;
#X connect 18 0 4 0;
#X connect 19 0 24 0;
#X connect 20 0 7 0;
#X connect 21 1 19 0;
#X connect 21 2 30 0;
#X connect 21 3 31 0;
#X connect 22 0 8 0;
#X connect 23 0 9 0;
#X connect 24 0 20 0;
#X connect 25 0 26 0;
#X connect 25 0 35 0;
#X connect 26 0 25 1;
#X connect 27 0 18 2;
#X connect 28 0 29 0;
#X connect 29 0 25 0;
#X connect 30 0 32 0;
#X connect 31 0 33 0;
#X connect 32 0 22 0;
#X connect 33 0 23 0;
#X connect 34 0 1 0;
#X connect 35 0 27 0;
#X connect 35 0 18 1;
